<mxfile host="app.diagrams.net" agent="Mozilla/5.0 (Windows NT 10.0; Win64; x64) AppleWebKit/537.36 (KHTML, like Gecko) Chrome/136.0.0.0 Safari/537.36" version="27.0.9">
  <diagram name="Page-1" id="tbfPp32WlleiHaKjNLK-">
    <mxGraphModel dx="1023" dy="460" grid="1" gridSize="10" guides="1" tooltips="1" connect="1" arrows="1" fold="1" page="1" pageScale="1" pageWidth="850" pageHeight="1100" math="0" shadow="0">
      <root>
        <mxCell id="0" />
        <mxCell id="1" parent="0" />
        <mxCell id="xG6iw9BcrIbRYxjrt-3h-1" value="&lt;span style=&quot;font-weight: 400; text-align: left;&quot;&gt;login&lt;/span&gt;" style="swimlane;fontStyle=1;align=center;verticalAlign=top;childLayout=stackLayout;horizontal=1;startSize=26;horizontalStack=0;resizeParent=1;resizeParentMax=0;resizeLast=0;collapsible=1;marginBottom=0;whiteSpace=wrap;html=1;" vertex="1" parent="1">
          <mxGeometry x="320" y="10" width="240" height="150" as="geometry" />
        </mxCell>
        <mxCell id="xG6iw9BcrIbRYxjrt-3h-2" value="&amp;nbsp;- con: Connection&lt;br style=&quot;padding: 0px; margin: 0px;&quot;&gt;&amp;nbsp; - username: String&lt;br style=&quot;padding: 0px; margin: 0px;&quot;&gt;&amp;nbsp; - password: String&lt;br style=&quot;padding: 0px; margin: 0px;&quot;&gt;&amp;nbsp; - role: String" style="text;strokeColor=none;fillColor=none;align=left;verticalAlign=top;spacingLeft=4;spacingRight=4;overflow=hidden;rotatable=0;points=[[0,0.5],[1,0.5]];portConstraint=eastwest;whiteSpace=wrap;html=1;" vertex="1" parent="xG6iw9BcrIbRYxjrt-3h-1">
          <mxGeometry y="26" width="240" height="74" as="geometry" />
        </mxCell>
        <mxCell id="xG6iw9BcrIbRYxjrt-3h-3" value="" style="line;strokeWidth=1;fillColor=none;align=left;verticalAlign=middle;spacingTop=-1;spacingLeft=3;spacingRight=3;rotatable=0;labelPosition=right;points=[];portConstraint=eastwest;strokeColor=inherit;" vertex="1" parent="xG6iw9BcrIbRYxjrt-3h-1">
          <mxGeometry y="100" width="240" height="8" as="geometry" />
        </mxCell>
        <mxCell id="xG6iw9BcrIbRYxjrt-3h-4" value="+ verifyCredentials(): boolean" style="text;strokeColor=none;fillColor=none;align=left;verticalAlign=top;spacingLeft=4;spacingRight=4;overflow=hidden;rotatable=0;points=[[0,0.5],[1,0.5]];portConstraint=eastwest;whiteSpace=wrap;html=1;" vertex="1" parent="xG6iw9BcrIbRYxjrt-3h-1">
          <mxGeometry y="108" width="240" height="42" as="geometry" />
        </mxCell>
        <mxCell id="xG6iw9BcrIbRYxjrt-3h-6" value="&lt;span style=&quot;font-weight: 400; text-align: left;&quot;&gt;Users&amp;nbsp;&lt;/span&gt;" style="swimlane;fontStyle=1;align=center;verticalAlign=top;childLayout=stackLayout;horizontal=1;startSize=26;horizontalStack=0;resizeParent=1;resizeParentMax=0;resizeLast=0;collapsible=1;marginBottom=0;whiteSpace=wrap;html=1;" vertex="1" parent="1">
          <mxGeometry x="80" y="200" width="200" height="180" as="geometry" />
        </mxCell>
        <mxCell id="xG6iw9BcrIbRYxjrt-3h-7" value="&amp;nbsp; - con: Connection&lt;br style=&quot;padding: 0px; margin: 0px;&quot;&gt;&amp;nbsp; - pst: PreparedStatement&lt;br style=&quot;padding: 0px; margin: 0px;&quot;&gt;&amp;nbsp; - rs: ResultSet" style="text;strokeColor=none;fillColor=none;align=left;verticalAlign=top;spacingLeft=4;spacingRight=4;overflow=hidden;rotatable=0;points=[[0,0.5],[1,0.5]];portConstraint=eastwest;whiteSpace=wrap;html=1;" vertex="1" parent="xG6iw9BcrIbRYxjrt-3h-6">
          <mxGeometry y="26" width="200" height="64" as="geometry" />
        </mxCell>
        <mxCell id="xG6iw9BcrIbRYxjrt-3h-8" value="" style="line;strokeWidth=1;fillColor=none;align=left;verticalAlign=middle;spacingTop=-1;spacingLeft=3;spacingRight=3;rotatable=0;labelPosition=right;points=[];portConstraint=eastwest;strokeColor=inherit;" vertex="1" parent="xG6iw9BcrIbRYxjrt-3h-6">
          <mxGeometry y="90" width="200" height="8" as="geometry" />
        </mxCell>
        <mxCell id="xG6iw9BcrIbRYxjrt-3h-9" value="+ addUser()&lt;br style=&quot;padding: 0px; margin: 0px;&quot;&gt;&amp;nbsp; + updateUser()&lt;br style=&quot;padding: 0px; margin: 0px;&quot;&gt;&amp;nbsp; + deleteUser()&lt;br style=&quot;padding: 0px; margin: 0px;&quot;&gt;&amp;nbsp; + showData()" style="text;strokeColor=none;fillColor=none;align=left;verticalAlign=top;spacingLeft=4;spacingRight=4;overflow=hidden;rotatable=0;points=[[0,0.5],[1,0.5]];portConstraint=eastwest;whiteSpace=wrap;html=1;" vertex="1" parent="xG6iw9BcrIbRYxjrt-3h-6">
          <mxGeometry y="98" width="200" height="82" as="geometry" />
        </mxCell>
        <mxCell id="xG6iw9BcrIbRYxjrt-3h-11" value="Import" style="swimlane;fontStyle=1;align=center;verticalAlign=top;childLayout=stackLayout;horizontal=1;startSize=26;horizontalStack=0;resizeParent=1;resizeParentMax=0;resizeLast=0;collapsible=1;marginBottom=0;whiteSpace=wrap;html=1;" vertex="1" parent="1">
          <mxGeometry x="590" y="200" width="210" height="180" as="geometry" />
        </mxCell>
        <mxCell id="xG6iw9BcrIbRYxjrt-3h-12" value="&amp;nbsp;- con: Connection&lt;br style=&quot;padding: 0px; margin: 0px;&quot;&gt;&amp;nbsp; - ministry: String&lt;br style=&quot;padding: 0px; margin: 0px;&quot;&gt;&amp;nbsp; - office: String&lt;br style=&quot;padding: 0px; margin: 0px;&quot;&gt;&amp;nbsp; - product: String" style="text;strokeColor=none;fillColor=none;align=left;verticalAlign=top;spacingLeft=4;spacingRight=4;overflow=hidden;rotatable=0;points=[[0,0.5],[1,0.5]];portConstraint=eastwest;whiteSpace=wrap;html=1;" vertex="1" parent="xG6iw9BcrIbRYxjrt-3h-11">
          <mxGeometry y="26" width="210" height="74" as="geometry" />
        </mxCell>
        <mxCell id="xG6iw9BcrIbRYxjrt-3h-13" value="" style="line;strokeWidth=1;fillColor=none;align=left;verticalAlign=middle;spacingTop=-1;spacingLeft=3;spacingRight=3;rotatable=0;labelPosition=right;points=[];portConstraint=eastwest;strokeColor=inherit;" vertex="1" parent="xG6iw9BcrIbRYxjrt-3h-11">
          <mxGeometry y="100" width="210" height="8" as="geometry" />
        </mxCell>
        <mxCell id="xG6iw9BcrIbRYxjrt-3h-14" value="&amp;nbsp; + addImport()&lt;br style=&quot;padding: 0px; margin: 0px;&quot;&gt;&amp;nbsp; + setMinistry()&lt;br style=&quot;padding: 0px; margin: 0px;&quot;&gt;&amp;nbsp; + setOffice()" style="text;strokeColor=none;fillColor=none;align=left;verticalAlign=top;spacingLeft=4;spacingRight=4;overflow=hidden;rotatable=0;points=[[0,0.5],[1,0.5]];portConstraint=eastwest;whiteSpace=wrap;html=1;" vertex="1" parent="xG6iw9BcrIbRYxjrt-3h-11">
          <mxGeometry y="108" width="210" height="72" as="geometry" />
        </mxCell>
        <mxCell id="xG6iw9BcrIbRYxjrt-3h-16" value="View" style="swimlane;fontStyle=1;align=center;verticalAlign=top;childLayout=stackLayout;horizontal=1;startSize=26;horizontalStack=0;resizeParent=1;resizeParentMax=0;resizeLast=0;collapsible=1;marginBottom=0;whiteSpace=wrap;html=1;" vertex="1" parent="1">
          <mxGeometry x="80" y="450" width="200" height="170" as="geometry" />
        </mxCell>
        <mxCell id="xG6iw9BcrIbRYxjrt-3h-17" value="&amp;nbsp; - con: Connection&lt;br style=&quot;padding: 0px; margin: 0px;&quot;&gt;&amp;nbsp; - pst: PreparedStatement&lt;br style=&quot;padding: 0px; margin: 0px;&quot;&gt;&amp;nbsp; - rs: ResultSet" style="text;strokeColor=none;fillColor=none;align=left;verticalAlign=top;spacingLeft=4;spacingRight=4;overflow=hidden;rotatable=0;points=[[0,0.5],[1,0.5]];portConstraint=eastwest;whiteSpace=wrap;html=1;" vertex="1" parent="xG6iw9BcrIbRYxjrt-3h-16">
          <mxGeometry y="26" width="200" height="74" as="geometry" />
        </mxCell>
        <mxCell id="xG6iw9BcrIbRYxjrt-3h-18" value="" style="line;strokeWidth=1;fillColor=none;align=left;verticalAlign=middle;spacingTop=-1;spacingLeft=3;spacingRight=3;rotatable=0;labelPosition=right;points=[];portConstraint=eastwest;strokeColor=inherit;" vertex="1" parent="xG6iw9BcrIbRYxjrt-3h-16">
          <mxGeometry y="100" width="200" height="8" as="geometry" />
        </mxCell>
        <mxCell id="xG6iw9BcrIbRYxjrt-3h-19" value="&amp;nbsp;+ refreshTable()&lt;br style=&quot;padding: 0px; margin: 0px;&quot;&gt;&amp;nbsp; + searchByIdAndProduct()" style="text;strokeColor=none;fillColor=none;align=left;verticalAlign=top;spacingLeft=4;spacingRight=4;overflow=hidden;rotatable=0;points=[[0,0.5],[1,0.5]];portConstraint=eastwest;whiteSpace=wrap;html=1;" vertex="1" parent="xG6iw9BcrIbRYxjrt-3h-16">
          <mxGeometry y="108" width="200" height="62" as="geometry" />
        </mxCell>
        <mxCell id="xG6iw9BcrIbRYxjrt-3h-20" value="Login" style="swimlane;fontStyle=1;align=center;verticalAlign=top;childLayout=stackLayout;horizontal=1;startSize=26;horizontalStack=0;resizeParent=1;resizeParentMax=0;resizeLast=0;collapsible=1;marginBottom=0;whiteSpace=wrap;html=1;" vertex="1" parent="1">
          <mxGeometry x="590" y="460" width="210" height="160" as="geometry" />
        </mxCell>
        <mxCell id="xG6iw9BcrIbRYxjrt-3h-21" value="&amp;nbsp; - con: Connection&lt;br style=&quot;padding: 0px; margin: 0px;&quot;&gt;&amp;nbsp; - pst: PreparedStatement&lt;br style=&quot;padding: 0px; margin: 0px;&quot;&gt;&amp;nbsp; - rs: ResultSet&lt;br style=&quot;padding: 0px; margin: 0px;&quot;&gt;&amp;nbsp; - loginBackend: login" style="text;strokeColor=none;fillColor=none;align=left;verticalAlign=top;spacingLeft=4;spacingRight=4;overflow=hidden;rotatable=0;points=[[0,0.5],[1,0.5]];portConstraint=eastwest;whiteSpace=wrap;html=1;" vertex="1" parent="xG6iw9BcrIbRYxjrt-3h-20">
          <mxGeometry y="26" width="210" height="74" as="geometry" />
        </mxCell>
        <mxCell id="xG6iw9BcrIbRYxjrt-3h-22" value="" style="line;strokeWidth=1;fillColor=none;align=left;verticalAlign=middle;spacingTop=-1;spacingLeft=3;spacingRight=3;rotatable=0;labelPosition=right;points=[];portConstraint=eastwest;strokeColor=inherit;" vertex="1" parent="xG6iw9BcrIbRYxjrt-3h-20">
          <mxGeometry y="100" width="210" height="8" as="geometry" />
        </mxCell>
        <mxCell id="xG6iw9BcrIbRYxjrt-3h-23" value="+ dbConnection()&lt;br style=&quot;padding: 0px; margin: 0px;&quot;&gt;&amp;nbsp; + loginButtonActionPerformed()" style="text;strokeColor=none;fillColor=none;align=left;verticalAlign=top;spacingLeft=4;spacingRight=4;overflow=hidden;rotatable=0;points=[[0,0.5],[1,0.5]];portConstraint=eastwest;whiteSpace=wrap;html=1;" vertex="1" parent="xG6iw9BcrIbRYxjrt-3h-20">
          <mxGeometry y="108" width="210" height="52" as="geometry" />
        </mxCell>
        <mxCell id="xG6iw9BcrIbRYxjrt-3h-25" value="ManageUsers" style="swimlane;fontStyle=1;align=center;verticalAlign=top;childLayout=stackLayout;horizontal=1;startSize=26;horizontalStack=0;resizeParent=1;resizeParentMax=0;resizeLast=0;collapsible=1;marginBottom=0;whiteSpace=wrap;html=1;" vertex="1" parent="1">
          <mxGeometry x="80" y="720" width="200" height="120" as="geometry" />
        </mxCell>
        <mxCell id="xG6iw9BcrIbRYxjrt-3h-26" value="&amp;nbsp;- usersManager: Users" style="text;strokeColor=none;fillColor=none;align=left;verticalAlign=top;spacingLeft=4;spacingRight=4;overflow=hidden;rotatable=0;points=[[0,0.5],[1,0.5]];portConstraint=eastwest;whiteSpace=wrap;html=1;" vertex="1" parent="xG6iw9BcrIbRYxjrt-3h-25">
          <mxGeometry y="26" width="200" height="34" as="geometry" />
        </mxCell>
        <mxCell id="xG6iw9BcrIbRYxjrt-3h-27" value="" style="line;strokeWidth=1;fillColor=none;align=left;verticalAlign=middle;spacingTop=-1;spacingLeft=3;spacingRight=3;rotatable=0;labelPosition=right;points=[];portConstraint=eastwest;strokeColor=inherit;" vertex="1" parent="xG6iw9BcrIbRYxjrt-3h-25">
          <mxGeometry y="60" width="200" height="8" as="geometry" />
        </mxCell>
        <mxCell id="xG6iw9BcrIbRYxjrt-3h-28" value="+ deleteUser()&lt;br style=&quot;padding: 0px; margin: 0px;&quot;&gt;&amp;nbsp; + showData()" style="text;strokeColor=none;fillColor=none;align=left;verticalAlign=top;spacingLeft=4;spacingRight=4;overflow=hidden;rotatable=0;points=[[0,0.5],[1,0.5]];portConstraint=eastwest;whiteSpace=wrap;html=1;" vertex="1" parent="xG6iw9BcrIbRYxjrt-3h-25">
          <mxGeometry y="68" width="200" height="52" as="geometry" />
        </mxCell>
        <mxCell id="xG6iw9BcrIbRYxjrt-3h-29" value="&lt;span style=&quot;font-weight: 400; text-align: left;&quot;&gt;&amp;nbsp;Import_GUI&amp;nbsp;&lt;/span&gt;" style="swimlane;fontStyle=1;align=center;verticalAlign=top;childLayout=stackLayout;horizontal=1;startSize=26;horizontalStack=0;resizeParent=1;resizeParentMax=0;resizeLast=0;collapsible=1;marginBottom=0;whiteSpace=wrap;html=1;" vertex="1" parent="1">
          <mxGeometry x="590" y="880" width="210" height="86" as="geometry" />
        </mxCell>
        <mxCell id="xG6iw9BcrIbRYxjrt-3h-30" value="&amp;nbsp;- importManager: Import" style="text;strokeColor=none;fillColor=none;align=left;verticalAlign=top;spacingLeft=4;spacingRight=4;overflow=hidden;rotatable=0;points=[[0,0.5],[1,0.5]];portConstraint=eastwest;whiteSpace=wrap;html=1;" vertex="1" parent="xG6iw9BcrIbRYxjrt-3h-29">
          <mxGeometry y="26" width="210" height="26" as="geometry" />
        </mxCell>
        <mxCell id="xG6iw9BcrIbRYxjrt-3h-31" value="" style="line;strokeWidth=1;fillColor=none;align=left;verticalAlign=middle;spacingTop=-1;spacingLeft=3;spacingRight=3;rotatable=0;labelPosition=right;points=[];portConstraint=eastwest;strokeColor=inherit;" vertex="1" parent="xG6iw9BcrIbRYxjrt-3h-29">
          <mxGeometry y="52" width="210" height="8" as="geometry" />
        </mxCell>
        <mxCell id="xG6iw9BcrIbRYxjrt-3h-32" value="&amp;nbsp;+ saveButtonActionPerformed()" style="text;strokeColor=none;fillColor=none;align=left;verticalAlign=top;spacingLeft=4;spacingRight=4;overflow=hidden;rotatable=0;points=[[0,0.5],[1,0.5]];portConstraint=eastwest;whiteSpace=wrap;html=1;" vertex="1" parent="xG6iw9BcrIbRYxjrt-3h-29">
          <mxGeometry y="60" width="210" height="26" as="geometry" />
        </mxCell>
        <mxCell id="xG6iw9BcrIbRYxjrt-3h-37" value="&lt;span style=&quot;font-weight: 400; text-align: left;&quot;&gt;View_Accounting_71A&amp;nbsp;&lt;/span&gt;" style="swimlane;fontStyle=1;align=center;verticalAlign=top;childLayout=stackLayout;horizontal=1;startSize=26;horizontalStack=0;resizeParent=1;resizeParentMax=0;resizeLast=0;collapsible=1;marginBottom=0;whiteSpace=wrap;html=1;" vertex="1" parent="1">
          <mxGeometry x="80" y="880" width="200" height="86" as="geometry" />
        </mxCell>
        <mxCell id="xG6iw9BcrIbRYxjrt-3h-38" value="&amp;nbsp;- viewBackend: View" style="text;strokeColor=none;fillColor=none;align=left;verticalAlign=top;spacingLeft=4;spacingRight=4;overflow=hidden;rotatable=0;points=[[0,0.5],[1,0.5]];portConstraint=eastwest;whiteSpace=wrap;html=1;" vertex="1" parent="xG6iw9BcrIbRYxjrt-3h-37">
          <mxGeometry y="26" width="200" height="26" as="geometry" />
        </mxCell>
        <mxCell id="xG6iw9BcrIbRYxjrt-3h-39" value="" style="line;strokeWidth=1;fillColor=none;align=left;verticalAlign=middle;spacingTop=-1;spacingLeft=3;spacingRight=3;rotatable=0;labelPosition=right;points=[];portConstraint=eastwest;strokeColor=inherit;" vertex="1" parent="xG6iw9BcrIbRYxjrt-3h-37">
          <mxGeometry y="52" width="200" height="8" as="geometry" />
        </mxCell>
        <mxCell id="xG6iw9BcrIbRYxjrt-3h-40" value="&amp;nbsp;+ refreshTable()" style="text;strokeColor=none;fillColor=none;align=left;verticalAlign=top;spacingLeft=4;spacingRight=4;overflow=hidden;rotatable=0;points=[[0,0.5],[1,0.5]];portConstraint=eastwest;whiteSpace=wrap;html=1;" vertex="1" parent="xG6iw9BcrIbRYxjrt-3h-37">
          <mxGeometry y="60" width="200" height="26" as="geometry" />
        </mxCell>
        <mxCell id="xG6iw9BcrIbRYxjrt-3h-48" value="&lt;span style=&quot;font-weight: 400; text-align: left;&quot;&gt;Admin_Dashboard&lt;/span&gt;" style="swimlane;fontStyle=1;align=center;verticalAlign=top;childLayout=stackLayout;horizontal=1;startSize=26;horizontalStack=0;resizeParent=1;resizeParentMax=0;resizeLast=0;collapsible=1;marginBottom=0;whiteSpace=wrap;html=1;" vertex="1" parent="1">
          <mxGeometry x="590" y="720" width="210" height="120" as="geometry" />
        </mxCell>
        <mxCell id="xG6iw9BcrIbRYxjrt-3h-49" value="&amp;nbsp;- jMenu9: JMenu&lt;br style=&quot;padding: 0px; margin: 0px;&quot;&gt;&amp;nbsp; - jButton1: JButton" style="text;strokeColor=none;fillColor=none;align=left;verticalAlign=top;spacingLeft=4;spacingRight=4;overflow=hidden;rotatable=0;points=[[0,0.5],[1,0.5]];portConstraint=eastwest;whiteSpace=wrap;html=1;" vertex="1" parent="xG6iw9BcrIbRYxjrt-3h-48">
          <mxGeometry y="26" width="210" height="44" as="geometry" />
        </mxCell>
        <mxCell id="xG6iw9BcrIbRYxjrt-3h-50" value="" style="line;strokeWidth=1;fillColor=none;align=left;verticalAlign=middle;spacingTop=-1;spacingLeft=3;spacingRight=3;rotatable=0;labelPosition=right;points=[];portConstraint=eastwest;strokeColor=inherit;" vertex="1" parent="xG6iw9BcrIbRYxjrt-3h-48">
          <mxGeometry y="70" width="210" height="8" as="geometry" />
        </mxCell>
        <mxCell id="xG6iw9BcrIbRYxjrt-3h-51" value="&amp;nbsp; + dbConnection()&lt;br style=&quot;padding: 0px; margin: 0px;&quot;&gt;&amp;nbsp; + showDashboard()" style="text;strokeColor=none;fillColor=none;align=left;verticalAlign=top;spacingLeft=4;spacingRight=4;overflow=hidden;rotatable=0;points=[[0,0.5],[1,0.5]];portConstraint=eastwest;whiteSpace=wrap;html=1;" vertex="1" parent="xG6iw9BcrIbRYxjrt-3h-48">
          <mxGeometry y="78" width="210" height="42" as="geometry" />
        </mxCell>
        <mxCell id="xG6iw9BcrIbRYxjrt-3h-52" value="&lt;span style=&quot;font-weight: 400; text-align: left;&quot;&gt;User_Dashboard&lt;/span&gt;" style="swimlane;fontStyle=1;align=center;verticalAlign=top;childLayout=stackLayout;horizontal=1;startSize=26;horizontalStack=0;resizeParent=1;resizeParentMax=0;resizeLast=0;collapsible=1;marginBottom=0;whiteSpace=wrap;html=1;" vertex="1" parent="1">
          <mxGeometry x="340" y="720" width="200" height="120" as="geometry" />
        </mxCell>
        <mxCell id="xG6iw9BcrIbRYxjrt-3h-53" value="&amp;nbsp;- jButton2: JButton&lt;br style=&quot;padding: 0px; margin: 0px;&quot;&gt;&amp;nbsp; - jLabel2: JLabel" style="text;strokeColor=none;fillColor=none;align=left;verticalAlign=top;spacingLeft=4;spacingRight=4;overflow=hidden;rotatable=0;points=[[0,0.5],[1,0.5]];portConstraint=eastwest;whiteSpace=wrap;html=1;" vertex="1" parent="xG6iw9BcrIbRYxjrt-3h-52">
          <mxGeometry y="26" width="200" height="54" as="geometry" />
        </mxCell>
        <mxCell id="xG6iw9BcrIbRYxjrt-3h-54" value="" style="line;strokeWidth=1;fillColor=none;align=left;verticalAlign=middle;spacingTop=-1;spacingLeft=3;spacingRight=3;rotatable=0;labelPosition=right;points=[];portConstraint=eastwest;strokeColor=inherit;" vertex="1" parent="xG6iw9BcrIbRYxjrt-3h-52">
          <mxGeometry y="80" width="200" height="8" as="geometry" />
        </mxCell>
        <mxCell id="xG6iw9BcrIbRYxjrt-3h-55" value="&amp;nbsp; + showDashboard()" style="text;strokeColor=none;fillColor=none;align=left;verticalAlign=top;spacingLeft=4;spacingRight=4;overflow=hidden;rotatable=0;points=[[0,0.5],[1,0.5]];portConstraint=eastwest;whiteSpace=wrap;html=1;" vertex="1" parent="xG6iw9BcrIbRYxjrt-3h-52">
          <mxGeometry y="88" width="200" height="32" as="geometry" />
        </mxCell>
        <mxCell id="xG6iw9BcrIbRYxjrt-3h-60" value="" style="endArrow=classic;html=1;rounded=0;exitX=0.5;exitY=0;exitDx=0;exitDy=0;entryX=0.493;entryY=1.017;entryDx=0;entryDy=0;entryPerimeter=0;" edge="1" parent="1" source="xG6iw9BcrIbRYxjrt-3h-20" target="xG6iw9BcrIbRYxjrt-3h-4">
          <mxGeometry width="50" height="50" relative="1" as="geometry">
            <mxPoint x="400" y="410" as="sourcePoint" />
            <mxPoint x="420" y="200" as="targetPoint" />
            <Array as="points">
              <mxPoint x="695" y="430" />
              <mxPoint x="560" y="430" />
              <mxPoint x="560" y="180" />
              <mxPoint x="440" y="180" />
            </Array>
          </mxGeometry>
        </mxCell>
        <mxCell id="xG6iw9BcrIbRYxjrt-3h-69" value="Extends" style="edgeLabel;html=1;align=center;verticalAlign=middle;resizable=0;points=[];" vertex="1" connectable="0" parent="xG6iw9BcrIbRYxjrt-3h-60">
          <mxGeometry x="0.0028" y="-1" relative="1" as="geometry">
            <mxPoint as="offset" />
          </mxGeometry>
        </mxCell>
        <mxCell id="xG6iw9BcrIbRYxjrt-3h-61" value="" style="endArrow=classic;html=1;rounded=0;exitX=1.004;exitY=0.156;exitDx=0;exitDy=0;exitPerimeter=0;entryX=1;entryY=0.083;entryDx=0;entryDy=0;entryPerimeter=0;" edge="1" parent="1" source="xG6iw9BcrIbRYxjrt-3h-29" target="xG6iw9BcrIbRYxjrt-3h-11">
          <mxGeometry width="50" height="50" relative="1" as="geometry">
            <mxPoint x="400" y="880" as="sourcePoint" />
            <mxPoint x="820" y="210" as="targetPoint" />
            <Array as="points">
              <mxPoint x="820" y="893" />
              <mxPoint x="820" y="215" />
            </Array>
          </mxGeometry>
        </mxCell>
        <mxCell id="xG6iw9BcrIbRYxjrt-3h-68" value="Extends" style="edgeLabel;html=1;align=center;verticalAlign=middle;resizable=0;points=[];" vertex="1" connectable="0" parent="xG6iw9BcrIbRYxjrt-3h-61">
          <mxGeometry x="-0.2897" y="1" relative="1" as="geometry">
            <mxPoint as="offset" />
          </mxGeometry>
        </mxCell>
        <mxCell id="xG6iw9BcrIbRYxjrt-3h-62" value="" style="endArrow=classic;html=1;rounded=0;exitX=0;exitY=0.25;exitDx=0;exitDy=0;entryX=-0.012;entryY=0.09;entryDx=0;entryDy=0;entryPerimeter=0;" edge="1" parent="1" source="xG6iw9BcrIbRYxjrt-3h-37" target="xG6iw9BcrIbRYxjrt-3h-16">
          <mxGeometry width="50" height="50" relative="1" as="geometry">
            <mxPoint x="400" y="720" as="sourcePoint" />
            <mxPoint x="50" y="460" as="targetPoint" />
            <Array as="points">
              <mxPoint x="50" y="902" />
              <mxPoint x="50" y="690" />
              <mxPoint x="50" y="465" />
            </Array>
          </mxGeometry>
        </mxCell>
        <mxCell id="xG6iw9BcrIbRYxjrt-3h-71" value="Extends" style="edgeLabel;html=1;align=center;verticalAlign=middle;resizable=0;points=[];" vertex="1" connectable="0" parent="xG6iw9BcrIbRYxjrt-3h-62">
          <mxGeometry x="0.1251" relative="1" as="geometry">
            <mxPoint as="offset" />
          </mxGeometry>
        </mxCell>
        <mxCell id="xG6iw9BcrIbRYxjrt-3h-63" value="" style="endArrow=classic;html=1;rounded=0;exitX=1.007;exitY=0.121;exitDx=0;exitDy=0;exitPerimeter=0;entryX=1.016;entryY=0.083;entryDx=0;entryDy=0;entryPerimeter=0;" edge="1" parent="1" source="xG6iw9BcrIbRYxjrt-3h-25" target="xG6iw9BcrIbRYxjrt-3h-6">
          <mxGeometry width="50" height="50" relative="1" as="geometry">
            <mxPoint x="400" y="680" as="sourcePoint" />
            <mxPoint x="320" y="210" as="targetPoint" />
            <Array as="points">
              <mxPoint x="320" y="735" />
              <mxPoint x="320" y="215" />
            </Array>
          </mxGeometry>
        </mxCell>
        <mxCell id="xG6iw9BcrIbRYxjrt-3h-70" value="Extends" style="edgeLabel;html=1;align=center;verticalAlign=middle;resizable=0;points=[];" vertex="1" connectable="0" parent="xG6iw9BcrIbRYxjrt-3h-63">
          <mxGeometry x="0.2044" y="2" relative="1" as="geometry">
            <mxPoint as="offset" />
          </mxGeometry>
        </mxCell>
        <mxCell id="xG6iw9BcrIbRYxjrt-3h-64" value="" style="endArrow=classic;html=1;rounded=0;exitX=0.341;exitY=1.01;exitDx=0;exitDy=0;exitPerimeter=0;entryX=0.5;entryY=0;entryDx=0;entryDy=0;" edge="1" parent="1" source="xG6iw9BcrIbRYxjrt-3h-23" target="xG6iw9BcrIbRYxjrt-3h-52">
          <mxGeometry width="50" height="50" relative="1" as="geometry">
            <mxPoint x="400" y="730" as="sourcePoint" />
            <mxPoint x="450" y="680" as="targetPoint" />
          </mxGeometry>
        </mxCell>
        <mxCell id="xG6iw9BcrIbRYxjrt-3h-66" value="Redirect" style="edgeLabel;html=1;align=center;verticalAlign=middle;resizable=0;points=[];" vertex="1" connectable="0" parent="xG6iw9BcrIbRYxjrt-3h-64">
          <mxGeometry x="-0.0272" y="-1" relative="1" as="geometry">
            <mxPoint as="offset" />
          </mxGeometry>
        </mxCell>
        <mxCell id="xG6iw9BcrIbRYxjrt-3h-65" value="" style="endArrow=classic;html=1;rounded=0;exitX=0.551;exitY=1.028;exitDx=0;exitDy=0;exitPerimeter=0;entryX=0.5;entryY=0;entryDx=0;entryDy=0;" edge="1" parent="1" source="xG6iw9BcrIbRYxjrt-3h-23" target="xG6iw9BcrIbRYxjrt-3h-48">
          <mxGeometry width="50" height="50" relative="1" as="geometry">
            <mxPoint x="650" y="690" as="sourcePoint" />
            <mxPoint x="700" y="640" as="targetPoint" />
          </mxGeometry>
        </mxCell>
        <mxCell id="xG6iw9BcrIbRYxjrt-3h-67" value="Redirect" style="edgeLabel;html=1;align=center;verticalAlign=middle;resizable=0;points=[];" vertex="1" connectable="0" parent="xG6iw9BcrIbRYxjrt-3h-65">
          <mxGeometry x="-0.2398" y="-1" relative="1" as="geometry">
            <mxPoint as="offset" />
          </mxGeometry>
        </mxCell>
      </root>
    </mxGraphModel>
  </diagram>
</mxfile>
